<svg xmlns="http://www.w3.org/2000/svg" xmlns:xlink="http://www.w3.org/1999/xlink" width="500" zoomAndPan="magnify" viewBox="0 0 375 374.999991" height="500" preserveAspectRatio="xMidYMid meet" version="1.0"><defs><g/><clipPath id="3c05958723"><path d="M 120.953125 37.5 L 273.953125 37.5 L 273.953125 190.5 L 120.953125 190.5 Z M 120.953125 37.5 " clip-rule="nonzero"/></clipPath><clipPath id="446226406f"><path d="M 84 132 L 113 132 L 113 167 L 84 167 Z M 84 132 " clip-rule="nonzero"/></clipPath><clipPath id="2c61e92c3b"><path d="M 84.621094 166.03125 L 77.996094 139.507812 L 105.761719 132.570312 L 112.386719 159.09375 Z M 84.621094 166.03125 " clip-rule="nonzero"/></clipPath><clipPath id="38df60b5db"><path d="M 105.699219 132.585938 L 112.324219 159.113281 L 84.621094 166.03125 Z M 105.699219 132.585938 " clip-rule="nonzero"/></clipPath><clipPath id="284a11d208"><path d="M 0.480469 0.480469 L 28.558594 0.480469 L 28.558594 34.078125 L 0.480469 34.078125 Z M 0.480469 0.480469 " clip-rule="nonzero"/></clipPath><clipPath id="cd2b8d11cd"><path d="M 0.621094 34.03125 L -6.003906 7.507812 L 21.761719 0.570312 L 28.386719 27.09375 Z M 0.621094 34.03125 " clip-rule="nonzero"/></clipPath><clipPath id="c4e9f11cf2"><path d="M 21.699219 0.585938 L 28.324219 27.113281 L 0.621094 34.03125 Z M 21.699219 0.585938 " clip-rule="nonzero"/></clipPath><clipPath id="6fc5512b07"><rect x="0" width="29" y="0" height="35"/></clipPath><clipPath id="90a0625eeb"><path d="M 264.023438 153.671875 L 306.773438 153.671875 L 306.773438 191.171875 L 264.023438 191.171875 Z M 264.023438 153.671875 " clip-rule="nonzero"/></clipPath><clipPath id="b88e422163"><path d="M 0.351562 0.671875 L 42.773438 0.671875 L 42.773438 38 L 0.351562 38 Z M 0.351562 0.671875 " clip-rule="nonzero"/></clipPath><clipPath id="1b1aab47b1"><rect x="0" width="43" y="0" height="39"/></clipPath><clipPath id="ba25638430"><path d="M 278 138 L 303 138 L 303 175 L 278 175 Z M 278 138 " clip-rule="nonzero"/></clipPath><clipPath id="69b6c0f6b3"><path d="M 288.394531 138.902344 L 313.289062 148.851562 L 302.871094 174.914062 L 277.976562 164.964844 Z M 288.394531 138.902344 " clip-rule="nonzero"/></clipPath><clipPath id="ede2caf5bf"><path d="M 302.894531 174.855469 L 278 164.902344 L 288.394531 138.902344 Z M 302.894531 174.855469 " clip-rule="nonzero"/></clipPath><clipPath id="14dd3fbfc5"><path d="M 0 0.71875 L 25 0.71875 L 25 36.960938 L 0 36.960938 Z M 0 0.71875 " clip-rule="nonzero"/></clipPath><clipPath id="84634a450c"><path d="M 10.394531 0.902344 L 35.289062 10.851562 L 24.871094 36.914062 L -0.0234375 26.964844 Z M 10.394531 0.902344 " clip-rule="nonzero"/></clipPath><clipPath id="ae1a58c196"><path d="M 24.894531 36.855469 L 0 26.902344 L 10.394531 0.902344 Z M 24.894531 36.855469 " clip-rule="nonzero"/></clipPath><clipPath id="bf39882a29"><rect x="0" width="25" y="0" height="37"/></clipPath><clipPath id="5734f8e601"><path d="M 79.703125 144.101562 L 122.453125 144.101562 L 122.453125 181.601562 L 79.703125 181.601562 Z M 79.703125 144.101562 " clip-rule="nonzero"/></clipPath><clipPath id="f4f0e99a80"><path d="M 0.703125 0.476562 L 43.125 0.476562 L 43.125 37.601562 L 0.703125 37.601562 Z M 0.703125 0.476562 " clip-rule="nonzero"/></clipPath><clipPath id="1b7122043e"><rect x="0" width="44" y="0" height="38"/></clipPath><clipPath id="aa32b50b76"><path d="M 102.410156 18.550781 L 292.160156 18.550781 L 292.160156 208.300781 L 102.410156 208.300781 Z M 102.410156 18.550781 " clip-rule="nonzero"/></clipPath><clipPath id="5ea80e4aeb"><path d="M 101 113.214844 L 293.726562 113.214844 L 293.726562 226.464844 L 101 226.464844 Z M 101 113.214844 " clip-rule="nonzero"/></clipPath><clipPath id="4aec0af147"><path d="M 100.976562 169.660156 C 100.976562 200.832031 126.246094 226.105469 157.421875 226.105469 L 237.09375 226.105469 C 268.269531 226.105469 293.539062 200.832031 293.539062 169.660156 C 293.539062 138.484375 268.269531 113.214844 237.09375 113.214844 L 157.421875 113.214844 C 126.246094 113.214844 100.976562 138.484375 100.976562 169.660156 Z M 100.976562 169.660156 " clip-rule="nonzero"/></clipPath><clipPath id="e5f786e81a"><path d="M 0.0390625 0.214844 L 192.539062 0.214844 L 192.539062 113.101562 L 0.0390625 113.101562 Z M 0.0390625 0.214844 " clip-rule="nonzero"/></clipPath><clipPath id="3d2bf397fb"><path d="M -0.0234375 56.660156 C -0.0234375 87.832031 25.246094 113.105469 56.421875 113.105469 L 136.09375 113.105469 C 167.269531 113.105469 192.539062 87.832031 192.539062 56.660156 C 192.539062 25.484375 167.269531 0.214844 136.09375 0.214844 L 56.421875 0.214844 C 25.246094 0.214844 -0.0234375 25.484375 -0.0234375 56.660156 Z M -0.0234375 56.660156 " clip-rule="nonzero"/></clipPath><clipPath id="5da9a36ecc"><rect x="0" width="193" y="0" height="114"/></clipPath><clipPath id="c05fca19a8"><path d="M 102.410156 89 L 292.910156 89 L 292.910156 140.628906 L 102.410156 140.628906 Z M 102.410156 89 " clip-rule="nonzero"/></clipPath><clipPath id="9406779623"><path d="M 102.410156 96.378906 L 102.410156 131.921875 C 102.410156 136.894531 106.441406 140.921875 111.410156 140.921875 L 283.792969 140.921875 C 288.765625 140.921875 292.792969 136.894531 292.792969 131.921875 L 292.792969 96.378906 C 292.792969 91.40625 288.765625 87.378906 283.792969 87.378906 L 111.410156 87.378906 C 106.441406 87.378906 102.410156 91.40625 102.410156 96.378906 Z M 102.410156 96.378906 " clip-rule="nonzero"/></clipPath></defs><g clip-path="url(#3c05958723)"><path fill="#52595c" d="M 197.597656 190.792969 C 155.335938 190.792969 120.953125 156.410156 120.953125 114.144531 C 120.953125 71.882812 155.335938 37.5 197.597656 37.5 C 239.863281 37.5 274.246094 71.882812 274.246094 114.144531 C 274.246094 156.410156 239.863281 190.792969 197.597656 190.792969 Z M 197.597656 45.515625 C 159.753906 45.515625 128.96875 76.304688 128.96875 114.144531 C 128.96875 151.988281 159.753906 182.777344 197.597656 182.777344 C 235.441406 182.777344 266.230469 151.988281 266.230469 114.144531 C 266.230469 76.304688 235.441406 45.515625 197.597656 45.515625 Z M 197.597656 45.515625 " fill-opacity="1" fill-rule="nonzero"/></g><path fill="#52595c" d="M 250.167969 83.160156 L 228.695312 83.160156 C 230.957031 91.707031 232.261719 101.175781 232.488281 111.023438 L 258.570312 111.023438 C 258.054688 100.890625 255.046875 91.40625 250.167969 83.160156 Z M 250.167969 83.160156 " fill-opacity="1" fill-rule="nonzero"/><path fill="#52595c" d="M 245.929688 151.378906 L 226.804688 151.378906 C 225.65625 154.75 224.351562 157.941406 222.886719 160.902344 C 220.566406 165.578125 217.941406 169.496094 215.09375 172.628906 C 227.476562 168.917969 238.210938 161.375 245.929688 151.378906 Z M 245.929688 151.378906 " fill-opacity="1" fill-rule="nonzero"/><path fill="#52595c" d="M 258.570312 117.269531 L 232.488281 117.269531 C 232.261719 127.117188 230.960938 136.585938 228.695312 145.132812 L 250.167969 145.132812 C 255.046875 136.886719 258.054688 127.402344 258.570312 117.269531 Z M 258.570312 117.269531 " fill-opacity="1" fill-rule="nonzero"/><path fill="#52595c" d="M 200.722656 145.132812 L 222.214844 145.132812 C 224.613281 136.707031 226.003906 127.214844 226.242188 117.269531 L 200.722656 117.269531 Z M 200.722656 145.132812 " fill-opacity="1" fill-rule="nonzero"/><path fill="#52595c" d="M 207.953125 57.40625 C 205.601562 55.398438 203.179688 54.105469 200.722656 53.507812 L 200.722656 76.914062 L 220.183594 76.914062 C 219.308594 74.546875 218.34375 72.289062 217.292969 70.167969 C 214.558594 64.65625 211.417969 60.359375 207.953125 57.40625 Z M 207.953125 57.40625 " fill-opacity="1" fill-rule="nonzero"/><path fill="#52595c" d="M 200.722656 111.023438 L 226.242188 111.023438 C 226.003906 101.078125 224.613281 91.585938 222.214844 83.15625 L 200.722656 83.15625 Z M 200.722656 111.023438 " fill-opacity="1" fill-rule="nonzero"/><path fill="#52595c" d="M 226.804688 76.914062 L 245.929688 76.914062 C 238.210938 66.917969 227.476562 59.375 215.09375 55.664062 C 217.941406 58.796875 220.570312 62.714844 222.886719 67.390625 C 224.351562 70.351562 225.65625 73.542969 226.804688 76.914062 Z M 226.804688 76.914062 " fill-opacity="1" fill-rule="nonzero"/><path fill="#52595c" d="M 200.722656 174.785156 C 203.179688 174.1875 205.601562 172.890625 207.953125 170.886719 C 211.417969 167.929688 214.558594 163.636719 217.289062 158.128906 C 218.34375 156.003906 219.308594 153.746094 220.183594 151.378906 L 200.722656 151.378906 Z M 200.722656 174.785156 " fill-opacity="1" fill-rule="nonzero"/><path fill="#52595c" d="M 194.476562 83.160156 L 172.984375 83.160156 C 170.585938 91.585938 169.195312 101.078125 168.953125 111.023438 L 194.476562 111.023438 Z M 194.476562 83.160156 " fill-opacity="1" fill-rule="nonzero"/><path fill="#52595c" d="M 194.476562 117.269531 L 168.953125 117.269531 C 169.195312 127.214844 170.585938 136.707031 172.984375 145.132812 L 194.476562 145.132812 Z M 194.476562 117.269531 " fill-opacity="1" fill-rule="nonzero"/><path fill="#52595c" d="M 136.628906 111.023438 L 162.710938 111.023438 C 162.9375 101.175781 164.238281 91.707031 166.503906 83.15625 L 145.03125 83.15625 C 140.148438 91.40625 137.140625 100.890625 136.628906 111.023438 Z M 136.628906 111.023438 " fill-opacity="1" fill-rule="nonzero"/><path fill="#52595c" d="M 187.246094 170.886719 C 189.597656 172.894531 192.019531 174.1875 194.476562 174.785156 L 194.476562 151.378906 L 175.011719 151.378906 C 175.890625 153.746094 176.855469 156.003906 177.90625 158.128906 C 180.640625 163.636719 183.78125 167.929688 187.246094 170.886719 Z M 187.246094 170.886719 " fill-opacity="1" fill-rule="nonzero"/><path fill="#52595c" d="M 194.476562 53.507812 C 192.019531 54.105469 189.59375 55.398438 187.246094 57.40625 C 183.78125 60.359375 180.640625 64.65625 177.90625 70.164062 C 176.855469 72.289062 175.890625 74.546875 175.011719 76.910156 L 194.476562 76.910156 Z M 194.476562 53.507812 " fill-opacity="1" fill-rule="nonzero"/><path fill="#52595c" d="M 172.3125 67.390625 C 174.628906 62.714844 177.253906 58.796875 180.105469 55.664062 C 167.722656 59.375 156.988281 66.917969 149.269531 76.914062 L 168.394531 76.914062 C 169.542969 73.542969 170.84375 70.351562 172.3125 67.390625 Z M 172.3125 67.390625 " fill-opacity="1" fill-rule="nonzero"/><path fill="#52595c" d="M 180.105469 172.628906 C 177.257812 169.496094 174.632812 165.578125 172.3125 160.902344 C 170.847656 157.941406 169.542969 154.75 168.394531 151.378906 L 149.269531 151.378906 C 156.988281 161.375 167.722656 168.917969 180.105469 172.628906 Z M 180.105469 172.628906 " fill-opacity="1" fill-rule="nonzero"/><path fill="#52595c" d="M 145.03125 145.132812 L 166.503906 145.132812 C 164.238281 136.585938 162.9375 127.117188 162.710938 117.269531 L 136.628906 117.269531 C 137.140625 127.402344 140.148438 136.886719 145.03125 145.132812 Z M 145.03125 145.132812 " fill-opacity="1" fill-rule="nonzero"/><g clip-path="url(#446226406f)"><g clip-path="url(#2c61e92c3b)"><g clip-path="url(#38df60b5db)"><g transform="matrix(1, 0, 0, 1, 84, 132)"><g clip-path="url(#6fc5512b07)"><g clip-path="url(#284a11d208)"><g clip-path="url(#cd2b8d11cd)"><g clip-path="url(#c4e9f11cf2)"><path fill="#312d47" d="M 0.621094 34.03125 L -6.003906 7.507812 L 21.660156 0.597656 L 28.285156 27.121094 Z M 0.621094 34.03125 " fill-opacity="1" fill-rule="nonzero"/></g></g></g></g></g></g></g></g><g clip-path="url(#90a0625eeb)"><g transform="matrix(1, 0, 0, 1, 264, 153)"><g clip-path="url(#1b1aab47b1)"><g clip-path="url(#b88e422163)"><path fill="#312d47" d="M 0.445312 19.65625 L 21.023438 37.5625 C 21.230469 37.742188 21.515625 37.820312 21.796875 37.746094 C 22.253906 37.632812 22.53125 37.167969 22.414062 36.707031 L 19.707031 26.125 L 41.890625 28.273438 C 42.105469 28.308594 42.328125 28.265625 42.519531 28.132812 C 42.910156 27.863281 43.003906 27.328125 42.734375 26.941406 L 36.953125 18.648438 L 42.816406 11.414062 C 42.96875 11.234375 43.046875 10.996094 43.011719 10.746094 C 42.949219 10.277344 42.519531 9.949219 42.054688 10.015625 L 19.777344 13.050781 L 22.539062 1.875 C 22.617188 1.613281 22.5625 1.316406 22.375 1.089844 C 22.070312 0.730469 21.535156 0.679688 21.171875 0.984375 L 0.488281 18.328125 C 0.445312 18.363281 0.398438 18.402344 0.359375 18.449219 C 0.0507812 18.804688 0.0859375 19.347656 0.445312 19.65625 Z M 0.445312 19.65625 " fill-opacity="1" fill-rule="evenodd"/></g></g></g></g><g clip-path="url(#ba25638430)"><g clip-path="url(#69b6c0f6b3)"><g clip-path="url(#ede2caf5bf)"><g transform="matrix(1, 0, 0, 1, 278, 138)"><g clip-path="url(#bf39882a29)"><g clip-path="url(#14dd3fbfc5)"><g clip-path="url(#84634a450c)"><g clip-path="url(#ae1a58c196)"><path fill="#312d47" d="M 10.394531 0.902344 L 35.289062 10.851562 L 24.910156 36.816406 L 0.015625 26.867188 Z M 10.394531 0.902344 " fill-opacity="1" fill-rule="nonzero"/></g></g></g></g></g></g></g></g><g clip-path="url(#5734f8e601)"><g transform="matrix(1, 0, 0, 1, 79, 144)"><g clip-path="url(#1b7122043e)"><g clip-path="url(#f4f0e99a80)"><path fill="#312d47" d="M 43.03125 19.457031 L 22.453125 37.367188 C 22.246094 37.542969 21.960938 37.621094 21.679688 37.550781 C 21.222656 37.433594 20.945312 36.96875 21.0625 36.511719 L 23.769531 25.925781 L 1.585938 28.074219 C 1.371094 28.109375 1.148438 28.066406 0.957031 27.933594 C 0.566406 27.664062 0.472656 27.132812 0.742188 26.746094 L 6.523438 18.449219 L 0.660156 11.214844 C 0.507812 11.039062 0.429688 10.796875 0.464844 10.546875 C 0.527344 10.082031 0.957031 9.753906 1.421875 9.816406 L 23.699219 12.855469 L 20.9375 1.679688 C 20.859375 1.414062 20.914062 1.117188 21.101562 0.890625 C 21.402344 0.53125 21.941406 0.484375 22.304688 0.785156 L 42.988281 18.132812 C 43.03125 18.167969 43.078125 18.207031 43.117188 18.253906 C 43.425781 18.609375 43.386719 19.148438 43.03125 19.457031 Z M 43.03125 19.457031 " fill-opacity="1" fill-rule="evenodd"/></g></g></g></g><g clip-path="url(#aa32b50b76)"><path fill="#312d47" d="M 197.257812 208.242188 C 144.855469 208.242188 102.410156 165.503906 102.410156 113.398438 C 102.410156 61.292969 144.855469 18.550781 197.257812 18.550781 C 249.65625 18.550781 292.101562 61 292.101562 113.398438 C 292.101562 165.796875 249.363281 208.242188 197.257812 208.242188 Z M 197.257812 24.40625 C 148.078125 24.40625 108.265625 64.21875 108.265625 113.398438 C 108.265625 162.578125 148.078125 202.390625 197.257812 202.390625 C 246.433594 202.390625 286.246094 162.578125 286.246094 113.398438 C 286.246094 64.21875 246.140625 24.40625 197.257812 24.40625 Z M 197.257812 24.40625 " fill-opacity="1" fill-rule="nonzero"/></g><g clip-path="url(#5ea80e4aeb)"><g clip-path="url(#4aec0af147)"><g transform="matrix(1, 0, 0, 1, 101, 113)"><g clip-path="url(#5da9a36ecc)"><g clip-path="url(#e5f786e81a)"><g clip-path="url(#3d2bf397fb)"><path fill="#312d47" d="M 191.535156 4.128906 L 192.246094 11.570312 C 192.257812 11.683594 192.261719 11.792969 192.265625 11.902344 L 192.371094 19.378906 C 192.371094 19.488281 192.367188 19.601562 192.359375 19.710938 L 191.859375 27.167969 C 191.851562 27.28125 191.839844 27.390625 191.824219 27.5 L 190.71875 34.894531 C 190.703125 35.003906 190.683594 35.113281 190.65625 35.21875 L 188.957031 42.5 C 188.929688 42.605469 188.902344 42.714844 188.867188 42.820312 L 186.582031 49.9375 C 186.546875 50.042969 186.507812 50.144531 186.464844 50.25 L 183.609375 57.15625 C 183.566406 57.257812 183.519531 57.359375 183.46875 57.457031 L 180.0625 64.113281 C 180.011719 64.210938 179.957031 64.308594 179.898438 64.402344 L 175.960938 70.757812 C 175.902344 70.851562 175.839844 70.941406 175.777344 71.03125 L 171.335938 77.046875 C 171.269531 77.136719 171.203125 77.222656 171.128906 77.304688 L 166.214844 82.941406 C 166.144531 83.023438 166.066406 83.105469 165.988281 83.183594 L 160.632812 88.398438 C 160.554688 88.476562 160.472656 88.550781 160.386719 88.621094 L 154.625 93.386719 C 154.539062 93.457031 154.453125 93.523438 154.363281 93.585938 L 148.234375 97.871094 C 148.144531 97.933594 148.050781 97.992188 147.953125 98.050781 L 141.5 101.820312 C 141.402344 101.875 141.304688 101.929688 141.207031 101.976562 L 134.464844 105.210938 C 134.367188 105.257812 134.265625 105.300781 134.160156 105.34375 L 127.179688 108.019531 C 127.078125 108.058594 126.972656 108.09375 126.867188 108.125 L 119.691406 110.226562 C 119.585938 110.257812 119.476562 110.285156 119.371094 110.308594 L 112.050781 111.820312 C 111.941406 111.839844 111.832031 111.859375 111.722656 111.875 L 104.300781 112.785156 C 104.191406 112.800781 104.082031 112.808594 103.96875 112.8125 L 96.5 113.121094 C 96.390625 113.125 96.277344 113.125 96.164062 113.121094 L 88.511719 112.808594 C 88.398438 112.804688 88.285156 112.792969 88.175781 112.78125 L 80.574219 111.832031 C 80.460938 111.816406 80.351562 111.796875 80.238281 111.773438 L 72.746094 110.195312 C 72.636719 110.171875 72.523438 110.144531 72.417969 110.113281 L 65.078125 107.917969 C 64.972656 107.886719 64.863281 107.847656 64.757812 107.808594 L 57.628906 105.007812 C 57.523438 104.96875 57.417969 104.921875 57.316406 104.871094 L 50.445312 101.492188 C 50.34375 101.441406 50.246094 101.386719 50.148438 101.328125 L 43.582031 97.390625 C 43.484375 97.332031 43.386719 97.269531 43.296875 97.203125 L 37.082031 92.730469 C 36.988281 92.664062 36.898438 92.59375 36.8125 92.519531 L 30.988281 87.546875 C 30.902344 87.472656 30.820312 87.394531 30.738281 87.3125 L 25.351562 81.875 C 25.269531 81.792969 25.195312 81.710938 25.121094 81.621094 L 20.203125 75.753906 C 20.128906 75.664062 20.0625 75.574219 19.996094 75.484375 L 15.582031 69.226562 C 15.515625 69.132812 15.453125 69.035156 15.398438 68.9375 L 11.519531 62.335938 C 11.460938 62.238281 11.410156 62.136719 11.359375 62.035156 L 8.042969 55.132812 C 7.996094 55.03125 7.949219 54.925781 7.910156 54.820312 L 5.179688 47.664062 C 5.140625 47.558594 5.101562 47.449219 5.070312 47.34375 L 2.945312 39.984375 C 2.914062 39.875 2.886719 39.765625 2.863281 39.65625 L 1.359375 32.144531 C 1.335938 32.035156 1.316406 31.921875 1.304688 31.808594 L 0.425781 24.203125 C 0.414062 24.089844 0.40625 23.976562 0.402344 23.863281 L 0.160156 16.210938 C 0.15625 16.097656 0.15625 15.980469 0.164062 15.867188 L 0.558594 8.222656 C 0.675781 5.964844 2.597656 4.230469 4.855469 4.347656 C 7.109375 4.464844 8.84375 6.386719 8.730469 8.644531 L 8.332031 16.292969 L 8.335938 15.949219 L 8.578125 23.605469 L 8.554688 23.265625 L 9.433594 30.871094 L 9.378906 30.535156 L 10.886719 38.042969 L 10.804688 37.714844 L 12.929688 45.070312 L 12.824219 44.75 L 15.554688 51.902344 L 15.417969 51.589844 L 18.734375 58.492188 L 18.574219 58.191406 L 22.453125 64.796875 L 22.265625 64.511719 L 26.679688 70.769531 L 26.472656 70.5 L 31.390625 76.367188 L 31.164062 76.117188 L 36.550781 81.558594 L 36.300781 81.324219 L 42.125 86.300781 L 41.859375 86.089844 L 48.074219 90.5625 L 47.789062 90.375 L 54.355469 94.3125 L 54.058594 94.152344 L 60.929688 97.53125 L 60.617188 97.394531 L 67.746094 100.191406 L 67.425781 100.082031 L 74.761719 102.273438 L 74.429688 102.191406 L 81.925781 103.769531 L 81.589844 103.710938 L 89.1875 104.660156 L 88.847656 104.632812 L 96.5 104.949219 L 96.164062 104.949219 L 103.632812 104.640625 L 103.300781 104.667969 L 110.722656 103.753906 L 110.394531 103.808594 L 117.714844 102.296875 L 117.390625 102.375 L 124.566406 100.273438 L 124.25 100.378906 L 131.230469 97.703125 L 130.925781 97.835938 L 137.667969 94.601562 L 137.371094 94.757812 L 143.828125 90.984375 L 143.546875 91.164062 L 149.675781 86.882812 L 149.410156 87.082031 L 155.171875 82.316406 L 154.921875 82.539062 L 160.277344 77.324219 L 160.050781 77.5625 L 164.960938 71.929688 L 164.753906 72.1875 L 169.195312 66.175781 L 169.007812 66.449219 L 172.945312 60.09375 L 172.78125 60.382812 L 176.1875 53.730469 L 176.050781 54.03125 L 178.90625 47.121094 L 178.792969 47.433594 L 181.078125 40.316406 L 180.988281 40.636719 L 182.691406 33.359375 L 182.628906 33.683594 L 183.734375 26.289062 L 183.699219 26.621094 L 184.199219 19.164062 L 184.191406 19.496094 L 184.085938 12.019531 L 184.101562 12.351562 L 183.390625 4.910156 C 183.175781 2.660156 184.824219 0.664062 187.070312 0.449219 C 189.320312 0.234375 191.320312 1.882812 191.535156 4.128906 Z M 191.535156 4.128906 " fill-opacity="1" fill-rule="nonzero"/></g></g></g></g></g></g><g clip-path="url(#c05fca19a8)"><g clip-path="url(#9406779623)"><path fill="#e6b42b" d="M 102.589844 107.597656 C 102.589844 127.988281 102.429688 125.710938 103.980469 127.621094 C 109.3125 134.203125 117.445312 138.382812 127.011719 139.457031 C 140.058594 140.921875 152.25 139.585938 179.859375 133.652344 C 211.050781 126.953125 228.238281 124.707031 246.273438 124.972656 C 267.417969 125.28125 280.691406 129.523438 290.832031 139.203125 C 291.691406 140.023438 292.453125 140.695312 292.527344 140.695312 C 292.816406 140.695312 292.703125 104.972656 292.414062 104.410156 C 291.292969 102.242188 287.410156 98.40625 284.074219 96.179688 C 277.515625 91.800781 270.171875 90.042969 258.402344 90.042969 C 247.222656 90.039062 237.929688 91.382812 215.003906 96.308594 C 175.96875 104.691406 153.246094 106.785156 133.019531 103.859375 C 120.953125 102.117188 110.335938 97.257812 103.691406 90.441406 C 102.472656 89.191406 102.589844 87.378906 102.589844 107.597656 " fill-opacity="1" fill-rule="evenodd"/></g></g><g fill="#312d47" fill-opacity="1"><g transform="translate(114.581841, 260.105138)"><g><path d="M 13.6875 0 L 8.75 0 L 8.75 -9.8125 L 0.125 -24.984375 L 5.421875 -24.984375 L 11.125 -15.15625 L 11.546875 -15.15625 L 17.140625 -24.984375 L 22.3125 -24.984375 L 13.6875 -9.8125 Z M 13.6875 0 "/></g></g></g><g fill="#312d47" fill-opacity="1"><g transform="translate(135.665897, 260.105138)"><g><path d="M 12.140625 0.359375 C 10.046875 0.359375 8.238281 -0.113281 6.71875 -1.0625 C 5.195312 -2.019531 4.023438 -3.457031 3.203125 -5.375 C 2.378906 -7.289062 1.96875 -9.664062 1.96875 -12.5 C 1.96875 -15.34375 2.460938 -17.722656 3.453125 -19.640625 C 4.441406 -21.566406 5.816406 -23 7.578125 -23.9375 C 9.335938 -24.875 11.378906 -25.34375 13.703125 -25.34375 C 16.097656 -25.34375 18.140625 -24.894531 19.828125 -24 C 21.515625 -23.113281 22.695312 -21.796875 23.375 -20.046875 L 19.765625 -17.859375 L 19.34375 -17.875 C 18.832031 -18.988281 18.113281 -19.800781 17.1875 -20.3125 C 16.257812 -20.832031 15.097656 -21.09375 13.703125 -21.09375 C 11.546875 -21.09375 9.898438 -20.410156 8.765625 -19.046875 C 7.628906 -17.679688 7.0625 -15.5 7.0625 -12.5 C 7.0625 -9.476562 7.59375 -7.28125 8.65625 -5.90625 C 9.71875 -4.539062 11.289062 -3.859375 13.375 -3.859375 C 15.175781 -3.859375 16.503906 -4.265625 17.359375 -5.078125 C 18.210938 -5.890625 18.640625 -7.097656 18.640625 -8.703125 L 18.640625 -9.78125 L 12.734375 -9.78125 L 12.734375 -13.796875 L 23.546875 -13.796875 L 23.546875 0 L 18.828125 0 L 18.828125 -3.34375 L 18.46875 -3.40625 C 17.957031 -2.207031 17.179688 -1.28125 16.140625 -0.625 C 15.097656 0.03125 13.765625 0.359375 12.140625 0.359375 Z M 12.140625 0.359375 "/></g></g></g><g fill="#312d47" fill-opacity="1"><g transform="translate(161.722089, 260.105138)"><g/></g></g><g fill="#312d47" fill-opacity="1"><g transform="translate(169.97464, 260.105138)"><g><path d="M 12.140625 0.359375 C 10.046875 0.359375 8.238281 -0.113281 6.71875 -1.0625 C 5.195312 -2.019531 4.023438 -3.457031 3.203125 -5.375 C 2.378906 -7.289062 1.96875 -9.664062 1.96875 -12.5 C 1.96875 -15.34375 2.460938 -17.722656 3.453125 -19.640625 C 4.441406 -21.566406 5.816406 -23 7.578125 -23.9375 C 9.335938 -24.875 11.378906 -25.34375 13.703125 -25.34375 C 16.097656 -25.34375 18.140625 -24.894531 19.828125 -24 C 21.515625 -23.113281 22.695312 -21.796875 23.375 -20.046875 L 19.765625 -17.859375 L 19.34375 -17.875 C 18.832031 -18.988281 18.113281 -19.800781 17.1875 -20.3125 C 16.257812 -20.832031 15.097656 -21.09375 13.703125 -21.09375 C 11.546875 -21.09375 9.898438 -20.410156 8.765625 -19.046875 C 7.628906 -17.679688 7.0625 -15.5 7.0625 -12.5 C 7.0625 -9.476562 7.59375 -7.28125 8.65625 -5.90625 C 9.71875 -4.539062 11.289062 -3.859375 13.375 -3.859375 C 15.175781 -3.859375 16.503906 -4.265625 17.359375 -5.078125 C 18.210938 -5.890625 18.640625 -7.097656 18.640625 -8.703125 L 18.640625 -9.78125 L 12.734375 -9.78125 L 12.734375 -13.796875 L 23.546875 -13.796875 L 23.546875 0 L 18.828125 0 L 18.828125 -3.34375 L 18.46875 -3.40625 C 17.957031 -2.207031 17.179688 -1.28125 16.140625 -0.625 C 15.097656 0.03125 13.765625 0.359375 12.140625 0.359375 Z M 12.140625 0.359375 "/></g></g></g><g fill="#312d47" fill-opacity="1"><g transform="translate(196.030833, 260.105138)"><g><path d="M 7.828125 0.359375 C 6.128906 0.359375 4.832031 -0.0976562 3.9375 -1.015625 C 3.039062 -1.929688 2.59375 -3.328125 2.59375 -5.203125 L 2.59375 -26.421875 L 7.328125 -26.421875 L 7.328125 -5.390625 C 7.328125 -4.234375 7.804688 -3.65625 8.765625 -3.65625 C 9.035156 -3.65625 9.328125 -3.703125 9.640625 -3.796875 L 9.875 -3.71875 L 10.3125 -0.078125 C 10.039062 0.0546875 9.6875 0.160156 9.25 0.234375 C 8.820312 0.316406 8.347656 0.359375 7.828125 0.359375 Z M 7.828125 0.359375 "/></g></g></g><g fill="#312d47" fill-opacity="1"><g transform="translate(206.863374, 260.105138)"><g><path d="M 10.953125 0.359375 C 9.109375 0.359375 7.488281 -0.0195312 6.09375 -0.78125 C 4.695312 -1.539062 3.613281 -2.648438 2.84375 -4.109375 C 2.070312 -5.578125 1.6875 -7.347656 1.6875 -9.421875 C 1.6875 -11.492188 2.070312 -13.265625 2.84375 -14.734375 C 3.613281 -16.203125 4.695312 -17.3125 6.09375 -18.0625 C 7.488281 -18.820312 9.109375 -19.203125 10.953125 -19.203125 C 12.796875 -19.203125 14.414062 -18.820312 15.8125 -18.0625 C 17.207031 -17.3125 18.289062 -16.203125 19.0625 -14.734375 C 19.84375 -13.265625 20.234375 -11.492188 20.234375 -9.421875 C 20.234375 -7.347656 19.84375 -5.578125 19.0625 -4.109375 C 18.289062 -2.648438 17.207031 -1.539062 15.8125 -0.78125 C 14.414062 -0.0195312 12.796875 0.359375 10.953125 0.359375 Z M 10.953125 -3.65625 C 13.878906 -3.65625 15.34375 -5.578125 15.34375 -9.421875 C 15.34375 -11.410156 14.96875 -12.867188 14.21875 -13.796875 C 13.46875 -14.722656 12.378906 -15.1875 10.953125 -15.1875 C 8.023438 -15.1875 6.5625 -13.265625 6.5625 -9.421875 C 6.5625 -5.578125 8.023438 -3.65625 10.953125 -3.65625 Z M 10.953125 -3.65625 "/></g></g></g><g fill="#312d47" fill-opacity="1"><g transform="translate(228.767662, 260.105138)"><g><path d="M 13.171875 0.359375 C 10.773438 0.359375 8.988281 -0.539062 7.8125 -2.34375 L 7.453125 -2.265625 L 7.453125 0 L 2.71875 0 L 2.71875 -26.421875 L 7.453125 -26.421875 L 7.453125 -16.625 L 7.8125 -16.5625 C 8.457031 -17.457031 9.222656 -18.117188 10.109375 -18.546875 C 10.992188 -18.984375 12.050781 -19.203125 13.28125 -19.203125 C 14.800781 -19.203125 16.128906 -18.84375 17.265625 -18.125 C 18.410156 -17.414062 19.300781 -16.328125 19.9375 -14.859375 C 20.582031 -13.390625 20.90625 -11.578125 20.90625 -9.421875 C 20.90625 -7.273438 20.570312 -5.46875 19.90625 -4 C 19.25 -2.539062 18.335938 -1.445312 17.171875 -0.71875 C 16.015625 0 14.679688 0.359375 13.171875 0.359375 Z M 11.734375 -3.65625 C 13.128906 -3.65625 14.191406 -4.117188 14.921875 -5.046875 C 15.648438 -5.972656 16.015625 -7.429688 16.015625 -9.421875 C 16.015625 -11.410156 15.648438 -12.867188 14.921875 -13.796875 C 14.191406 -14.722656 13.128906 -15.1875 11.734375 -15.1875 C 10.398438 -15.1875 9.34375 -14.707031 8.5625 -13.75 C 7.789062 -12.800781 7.40625 -11.359375 7.40625 -9.421875 C 7.40625 -7.484375 7.789062 -6.035156 8.5625 -5.078125 C 9.34375 -4.128906 10.398438 -3.65625 11.734375 -3.65625 Z M 11.734375 -3.65625 "/></g></g></g><g fill="#312d47" fill-opacity="1"><g transform="translate(251.338305, 260.105138)"><g><path d="M 7.34375 0.359375 C 6.132812 0.359375 5.085938 0.140625 4.203125 -0.296875 C 3.316406 -0.742188 2.632812 -1.398438 2.15625 -2.265625 C 1.675781 -3.128906 1.4375 -4.160156 1.4375 -5.359375 C 1.4375 -6.484375 1.675781 -7.421875 2.15625 -8.171875 C 2.632812 -8.929688 3.375 -9.550781 4.375 -10.03125 C 5.375 -10.519531 6.6875 -10.894531 8.3125 -11.15625 C 9.4375 -11.34375 10.289062 -11.539062 10.875 -11.75 C 11.46875 -11.96875 11.863281 -12.210938 12.0625 -12.484375 C 12.269531 -12.765625 12.375 -13.113281 12.375 -13.53125 C 12.375 -14.132812 12.160156 -14.59375 11.734375 -14.90625 C 11.316406 -15.226562 10.617188 -15.390625 9.640625 -15.390625 C 8.585938 -15.390625 7.585938 -15.15625 6.640625 -14.6875 C 5.703125 -14.226562 4.882812 -13.617188 4.1875 -12.859375 L 3.84375 -12.859375 L 1.859375 -15.84375 C 2.816406 -16.90625 3.984375 -17.726562 5.359375 -18.3125 C 6.742188 -18.90625 8.25 -19.203125 9.875 -19.203125 C 12.375 -19.203125 14.179688 -18.671875 15.296875 -17.609375 C 16.410156 -16.554688 16.96875 -15.054688 16.96875 -13.109375 L 16.96875 -4.921875 C 16.96875 -4.078125 17.335938 -3.65625 18.078125 -3.65625 C 18.367188 -3.65625 18.648438 -3.707031 18.921875 -3.8125 L 19.15625 -3.75 L 19.5 -0.4375 C 19.238281 -0.269531 18.875 -0.128906 18.40625 -0.015625 C 17.9375 0.0859375 17.425781 0.140625 16.875 0.140625 C 15.738281 0.140625 14.851562 -0.0703125 14.21875 -0.5 C 13.59375 -0.9375 13.144531 -1.617188 12.875 -2.546875 L 12.515625 -2.578125 C 11.585938 -0.617188 9.863281 0.359375 7.34375 0.359375 Z M 8.859375 -3.171875 C 9.953125 -3.171875 10.820312 -3.539062 11.46875 -4.28125 C 12.125 -5.019531 12.453125 -6.039062 12.453125 -7.34375 L 12.453125 -9.265625 L 12.140625 -9.328125 C 11.847656 -9.097656 11.472656 -8.90625 11.015625 -8.75 C 10.554688 -8.601562 9.894531 -8.457031 9.03125 -8.3125 C 8 -8.132812 7.257812 -7.835938 6.8125 -7.421875 C 6.363281 -7.003906 6.140625 -6.414062 6.140625 -5.65625 C 6.140625 -4.84375 6.378906 -4.222656 6.859375 -3.796875 C 7.335938 -3.378906 8.003906 -3.171875 8.859375 -3.171875 Z M 8.859375 -3.171875 "/></g></g></g><g fill="#312d47" fill-opacity="1"><g transform="translate(271.209356, 260.105138)"><g><path d="M 7.828125 0.359375 C 6.128906 0.359375 4.832031 -0.0976562 3.9375 -1.015625 C 3.039062 -1.929688 2.59375 -3.328125 2.59375 -5.203125 L 2.59375 -26.421875 L 7.328125 -26.421875 L 7.328125 -5.390625 C 7.328125 -4.234375 7.804688 -3.65625 8.765625 -3.65625 C 9.035156 -3.65625 9.328125 -3.703125 9.640625 -3.796875 L 9.875 -3.71875 L 10.3125 -0.078125 C 10.039062 0.0546875 9.6875 0.160156 9.25 0.234375 C 8.820312 0.316406 8.347656 0.359375 7.828125 0.359375 Z M 7.828125 0.359375 "/></g></g></g><g fill="#52595c" fill-opacity="1"><g transform="translate(110.372173, 291.055147)"><g><path d="M 5.375 0 L 2.140625 0 L 2.140625 -16.421875 L 5.375 -16.421875 Z M 5.375 0 "/></g></g></g><g fill="#52595c" fill-opacity="1"><g transform="translate(117.89403, 291.055147)"><g><path d="M 1.78125 0 L 1.78125 -12.390625 L 4.765625 -12.390625 L 4.765625 -10.5625 L 5.015625 -10.515625 C 5.785156 -11.921875 7.035156 -12.625 8.765625 -12.625 C 10.191406 -12.625 11.238281 -12.234375 11.90625 -11.453125 C 12.582031 -10.671875 12.921875 -9.535156 12.921875 -8.046875 L 12.921875 0 L 9.796875 0 L 9.796875 -7.671875 C 9.796875 -8.492188 9.628906 -9.085938 9.296875 -9.453125 C 8.972656 -9.816406 8.453125 -10 7.734375 -10 C 6.835938 -10 6.140625 -9.707031 5.640625 -9.125 C 5.140625 -8.550781 4.890625 -7.644531 4.890625 -6.40625 L 4.890625 0 Z M 1.78125 0 "/></g></g></g><g fill="#52595c" fill-opacity="1"><g transform="translate(132.252897, 291.055147)"><g><path d="M 8.53125 0 L 4.8125 0 L 0.234375 -12.390625 L 3.5 -12.390625 L 6.5625 -3.5625 L 6.828125 -3.5625 L 9.921875 -12.390625 L 13.09375 -12.390625 Z M 8.53125 0 "/></g></g></g><g fill="#52595c" fill-opacity="1"><g transform="translate(145.331914, 291.055147)"><g><path d="M 12.234375 -5.484375 L 4.28125 -5.484375 C 4.363281 -4.410156 4.664062 -3.628906 5.1875 -3.140625 C 5.71875 -2.648438 6.4375 -2.40625 7.34375 -2.40625 C 8.050781 -2.40625 8.625 -2.535156 9.0625 -2.796875 C 9.507812 -3.066406 9.867188 -3.472656 10.140625 -4.015625 L 10.375 -4.015625 L 12.4375 -2.6875 C 12.039062 -1.8125 11.429688 -1.101562 10.609375 -0.5625 C 9.796875 -0.03125 8.707031 0.234375 7.34375 0.234375 C 6.0625 0.234375 4.953125 -0.00390625 4.015625 -0.484375 C 3.085938 -0.972656 2.367188 -1.695312 1.859375 -2.65625 C 1.359375 -3.625 1.109375 -4.800781 1.109375 -6.1875 C 1.109375 -7.59375 1.375 -8.78125 1.90625 -9.75 C 2.4375 -10.71875 3.15625 -11.4375 4.0625 -11.90625 C 4.96875 -12.382812 5.988281 -12.625 7.125 -12.625 C 8.875 -12.625 10.210938 -12.160156 11.140625 -11.234375 C 12.078125 -10.304688 12.546875 -8.941406 12.546875 -7.140625 C 12.546875 -6.492188 12.523438 -5.988281 12.484375 -5.625 Z M 9.5625 -7.5 C 9.539062 -8.445312 9.320312 -9.132812 8.90625 -9.5625 C 8.5 -9.988281 7.90625 -10.203125 7.125 -10.203125 C 5.550781 -10.203125 4.625 -9.300781 4.34375 -7.5 Z M 9.5625 -7.5 "/></g></g></g><g fill="#52595c" fill-opacity="1"><g transform="translate(158.792671, 291.055147)"><g><path d="M 5.796875 0.234375 C 4.953125 0.234375 4.175781 0.132812 3.46875 -0.0625 C 2.769531 -0.257812 2.171875 -0.53125 1.671875 -0.875 C 1.171875 -1.226562 0.800781 -1.628906 0.5625 -2.078125 L 2.296875 -3.9375 L 2.53125 -3.9375 C 2.9375 -3.382812 3.421875 -2.96875 3.984375 -2.6875 C 4.546875 -2.414062 5.15625 -2.28125 5.8125 -2.28125 C 6.425781 -2.28125 6.882812 -2.390625 7.1875 -2.609375 C 7.488281 -2.828125 7.640625 -3.132812 7.640625 -3.53125 C 7.640625 -3.851562 7.53125 -4.117188 7.3125 -4.328125 C 7.09375 -4.546875 6.738281 -4.710938 6.25 -4.828125 L 4.609375 -5.21875 C 3.378906 -5.507812 2.476562 -5.957031 1.90625 -6.5625 C 1.34375 -7.164062 1.0625 -7.929688 1.0625 -8.859375 C 1.0625 -9.628906 1.257812 -10.296875 1.65625 -10.859375 C 2.050781 -11.429688 2.601562 -11.867188 3.3125 -12.171875 C 4.03125 -12.472656 4.863281 -12.625 5.8125 -12.625 C 6.925781 -12.625 7.847656 -12.460938 8.578125 -12.140625 C 9.316406 -11.816406 9.894531 -11.382812 10.3125 -10.84375 L 8.640625 -9.046875 L 8.421875 -9.046875 C 8.078125 -9.441406 7.6875 -9.726562 7.25 -9.90625 C 6.820312 -10.082031 6.34375 -10.171875 5.8125 -10.171875 C 4.582031 -10.171875 3.96875 -9.789062 3.96875 -9.03125 C 3.96875 -8.707031 4.082031 -8.441406 4.3125 -8.234375 C 4.539062 -8.035156 4.945312 -7.875 5.53125 -7.75 L 7.046875 -7.40625 C 8.304688 -7.144531 9.226562 -6.710938 9.8125 -6.109375 C 10.394531 -5.515625 10.6875 -4.71875 10.6875 -3.71875 C 10.6875 -2.925781 10.488281 -2.226562 10.09375 -1.625 C 9.707031 -1.03125 9.144531 -0.570312 8.40625 -0.25 C 7.675781 0.0703125 6.804688 0.234375 5.796875 0.234375 Z M 5.796875 0.234375 "/></g></g></g><g fill="#52595c" fill-opacity="1"><g transform="translate(170.210178, 291.055147)"><g><path d="M 8.546875 -2.953125 L 9.359375 -0.65625 C 9.015625 -0.375 8.585938 -0.15625 8.078125 0 C 7.578125 0.15625 7.003906 0.234375 6.359375 0.234375 C 5.015625 0.234375 3.992188 -0.128906 3.296875 -0.859375 C 2.597656 -1.585938 2.25 -2.648438 2.25 -4.046875 L 2.25 -9.921875 L 0.375 -9.921875 L 0.375 -12.40625 L 2.25 -12.40625 L 2.25 -14.8125 L 5.375 -15.3125 L 5.375 -12.40625 L 8.890625 -12.40625 L 8.890625 -9.921875 L 5.375 -9.921875 L 5.375 -4.265625 C 5.375 -3.648438 5.5 -3.203125 5.75 -2.921875 C 6 -2.640625 6.367188 -2.5 6.859375 -2.5 C 7.410156 -2.5 7.894531 -2.648438 8.3125 -2.953125 Z M 8.546875 -2.953125 "/></g></g></g><g fill="#52595c" fill-opacity="1"><g transform="translate(179.83142, 291.055147)"><g><path d="M 1.78125 0 L 1.78125 -12.390625 L 4.765625 -12.390625 L 4.765625 -10.71875 L 5.015625 -10.6875 C 5.410156 -11.351562 5.878906 -11.84375 6.421875 -12.15625 C 6.972656 -12.46875 7.671875 -12.625 8.515625 -12.625 C 9.453125 -12.625 10.203125 -12.4375 10.765625 -12.0625 C 11.335938 -11.695312 11.753906 -11.15625 12.015625 -10.4375 L 12.25 -10.4375 C 12.632812 -11.1875 13.128906 -11.738281 13.734375 -12.09375 C 14.335938 -12.445312 15.085938 -12.625 15.984375 -12.625 C 18.546875 -12.625 19.828125 -11.191406 19.828125 -8.328125 L 19.828125 0 L 16.71875 0 L 16.71875 -7.9375 C 16.71875 -8.664062 16.578125 -9.191406 16.296875 -9.515625 C 16.015625 -9.835938 15.554688 -10 14.921875 -10 C 13.210938 -10 12.359375 -8.851562 12.359375 -6.5625 L 12.359375 0 L 9.25 0 L 9.25 -7.9375 C 9.25 -8.664062 9.101562 -9.191406 8.8125 -9.515625 C 8.53125 -9.835938 8.078125 -10 7.453125 -10 C 6.648438 -10 6.019531 -9.726562 5.5625 -9.1875 C 5.113281 -8.65625 4.890625 -7.804688 4.890625 -6.640625 L 4.890625 0 Z M 1.78125 0 "/></g></g></g><g fill="#52595c" fill-opacity="1"><g transform="translate(201.251874, 291.055147)"><g><path d="M 12.234375 -5.484375 L 4.28125 -5.484375 C 4.363281 -4.410156 4.664062 -3.628906 5.1875 -3.140625 C 5.71875 -2.648438 6.4375 -2.40625 7.34375 -2.40625 C 8.050781 -2.40625 8.625 -2.535156 9.0625 -2.796875 C 9.507812 -3.066406 9.867188 -3.472656 10.140625 -4.015625 L 10.375 -4.015625 L 12.4375 -2.6875 C 12.039062 -1.8125 11.429688 -1.101562 10.609375 -0.5625 C 9.796875 -0.03125 8.707031 0.234375 7.34375 0.234375 C 6.0625 0.234375 4.953125 -0.00390625 4.015625 -0.484375 C 3.085938 -0.972656 2.367188 -1.695312 1.859375 -2.65625 C 1.359375 -3.625 1.109375 -4.800781 1.109375 -6.1875 C 1.109375 -7.59375 1.375 -8.78125 1.90625 -9.75 C 2.4375 -10.71875 3.15625 -11.4375 4.0625 -11.90625 C 4.96875 -12.382812 5.988281 -12.625 7.125 -12.625 C 8.875 -12.625 10.210938 -12.160156 11.140625 -11.234375 C 12.078125 -10.304688 12.546875 -8.941406 12.546875 -7.140625 C 12.546875 -6.492188 12.523438 -5.988281 12.484375 -5.625 Z M 9.5625 -7.5 C 9.539062 -8.445312 9.320312 -9.132812 8.90625 -9.5625 C 8.5 -9.988281 7.90625 -10.203125 7.125 -10.203125 C 5.550781 -10.203125 4.625 -9.300781 4.34375 -7.5 Z M 9.5625 -7.5 "/></g></g></g><g fill="#52595c" fill-opacity="1"><g transform="translate(214.712632, 291.055147)"><g><path d="M 1.78125 0 L 1.78125 -12.390625 L 4.765625 -12.390625 L 4.765625 -10.5625 L 5.015625 -10.515625 C 5.785156 -11.921875 7.035156 -12.625 8.765625 -12.625 C 10.191406 -12.625 11.238281 -12.234375 11.90625 -11.453125 C 12.582031 -10.671875 12.921875 -9.535156 12.921875 -8.046875 L 12.921875 0 L 9.796875 0 L 9.796875 -7.671875 C 9.796875 -8.492188 9.628906 -9.085938 9.296875 -9.453125 C 8.972656 -9.816406 8.453125 -10 7.734375 -10 C 6.835938 -10 6.140625 -9.707031 5.640625 -9.125 C 5.140625 -8.550781 4.890625 -7.644531 4.890625 -6.40625 L 4.890625 0 Z M 1.78125 0 "/></g></g></g><g fill="#52595c" fill-opacity="1"><g transform="translate(229.127643, 291.055147)"><g><path d="M 8.546875 -2.953125 L 9.359375 -0.65625 C 9.015625 -0.375 8.585938 -0.15625 8.078125 0 C 7.578125 0.15625 7.003906 0.234375 6.359375 0.234375 C 5.015625 0.234375 3.992188 -0.128906 3.296875 -0.859375 C 2.597656 -1.585938 2.25 -2.648438 2.25 -4.046875 L 2.25 -9.921875 L 0.375 -9.921875 L 0.375 -12.40625 L 2.25 -12.40625 L 2.25 -14.8125 L 5.375 -15.3125 L 5.375 -12.40625 L 8.890625 -12.40625 L 8.890625 -9.921875 L 5.375 -9.921875 L 5.375 -4.265625 C 5.375 -3.648438 5.5 -3.203125 5.75 -2.921875 C 6 -2.640625 6.367188 -2.5 6.859375 -2.5 C 7.410156 -2.5 7.894531 -2.648438 8.3125 -2.953125 Z M 8.546875 -2.953125 "/></g></g></g><g fill="#52595c" fill-opacity="1"><g transform="translate(238.748885, 291.055147)"><g/></g></g><g fill="#52595c" fill-opacity="1"><g transform="translate(244.171359, 291.055147)"><g><path d="M 5.375 -16.421875 L 5.375 -2.71875 L 12.765625 -2.71875 L 12.765625 0 L 2.140625 0 L 2.140625 -16.421875 Z M 5.375 -16.421875 "/></g></g></g><g fill="#52595c" fill-opacity="1"><g transform="translate(255.072153, 291.055147)"><g><path d="M 13.15625 -16.421875 L 13.15625 -13.6875 L 8.421875 -13.6875 L 8.421875 0 L 5.1875 0 L 5.1875 -13.6875 L 0.453125 -13.6875 L 0.453125 -16.421875 Z M 13.15625 -16.421875 "/></g></g></g><g fill="#52595c" fill-opacity="1"><g transform="translate(268.678857, 291.055147)"><g><path d="M 8.046875 -16.421875 C 10.710938 -16.421875 12.742188 -15.726562 14.140625 -14.34375 C 15.546875 -12.96875 16.25 -10.921875 16.25 -8.203125 C 16.25 -5.492188 15.546875 -3.445312 14.140625 -2.0625 C 12.742188 -0.6875 10.710938 0 8.046875 0 L 2.140625 0 L 2.140625 -16.421875 Z M 7.84375 -2.734375 C 9.539062 -2.734375 10.804688 -3.164062 11.640625 -4.03125 C 12.484375 -4.894531 12.90625 -6.285156 12.90625 -8.203125 C 12.90625 -10.128906 12.484375 -11.523438 11.640625 -12.390625 C 10.804688 -13.253906 9.539062 -13.6875 7.84375 -13.6875 L 5.375 -13.6875 L 5.375 -2.734375 Z M 7.84375 -2.734375 "/></g></g></g><g fill="#ffffff" fill-opacity="1"><g transform="translate(152.198227, 119.774992)"><g><path d="M 5.0625 0.171875 C 4.269531 0.171875 3.566406 0.0703125 2.953125 -0.125 C 2.335938 -0.320312 1.820312 -0.578125 1.40625 -0.890625 C 1 -1.210938 0.6875 -1.566406 0.46875 -1.953125 L 1.703125 -3.46875 L 1.90625 -3.46875 C 2.25 -2.957031 2.679688 -2.550781 3.203125 -2.25 C 3.734375 -1.945312 4.351562 -1.796875 5.0625 -1.796875 C 5.664062 -1.796875 6.117188 -1.921875 6.421875 -2.171875 C 6.734375 -2.429688 6.890625 -2.785156 6.890625 -3.234375 C 6.890625 -3.503906 6.835938 -3.726562 6.734375 -3.90625 C 6.640625 -4.09375 6.476562 -4.25 6.25 -4.375 C 6.019531 -4.507812 5.710938 -4.625 5.328125 -4.71875 L 3.859375 -5.046875 C 2.828125 -5.285156 2.0625 -5.675781 1.5625 -6.21875 C 1.0625 -6.757812 0.8125 -7.46875 0.8125 -8.34375 C 0.8125 -8.988281 0.972656 -9.554688 1.296875 -10.046875 C 1.617188 -10.535156 2.085938 -10.914062 2.703125 -11.1875 C 3.316406 -11.457031 4.054688 -11.59375 4.921875 -11.59375 C 5.796875 -11.59375 6.546875 -11.472656 7.171875 -11.234375 C 7.804688 -11.003906 8.335938 -10.648438 8.765625 -10.171875 L 7.65625 -8.640625 L 7.453125 -8.640625 C 7.128906 -8.984375 6.757812 -9.238281 6.34375 -9.40625 C 5.925781 -9.570312 5.453125 -9.65625 4.921875 -9.65625 C 4.296875 -9.65625 3.820312 -9.546875 3.5 -9.328125 C 3.175781 -9.109375 3.015625 -8.804688 3.015625 -8.421875 C 3.015625 -8.066406 3.128906 -7.78125 3.359375 -7.5625 C 3.585938 -7.351562 3.976562 -7.1875 4.53125 -7.0625 L 6.03125 -6.75 C 7.144531 -6.519531 7.953125 -6.125 8.453125 -5.5625 C 8.953125 -5 9.203125 -4.269531 9.203125 -3.375 C 9.203125 -2.65625 9.046875 -2.03125 8.734375 -1.5 C 8.429688 -0.976562 7.96875 -0.566406 7.34375 -0.265625 C 6.726562 0.0234375 5.96875 0.171875 5.0625 0.171875 Z M 5.0625 0.171875 "/></g></g></g><g fill="#ffffff" fill-opacity="1"><g transform="translate(162.00833, 119.774992)"><g><path d="M 3.75 0 L 1.484375 0 L 1.484375 -11.421875 L 3.75 -11.421875 Z M 3.75 0 "/></g></g></g><g fill="#ffffff" fill-opacity="1"><g transform="translate(167.241427, 119.774992)"><g><path d="M 3.671875 0 L 1.484375 0 L 1.484375 -11.421875 L 4.078125 -11.421875 L 8.65625 -4.0625 L 8.859375 -4.09375 L 8.859375 -11.421875 L 11.03125 -11.421875 L 11.03125 0 L 8.71875 0 L 3.875 -7.859375 L 3.671875 -7.828125 Z M 3.671875 0 "/></g></g></g><g fill="#ffffff" fill-opacity="1"><g transform="translate(179.761812, 119.774992)"><g><path d="M 6.25 0.171875 C 5.195312 0.171875 4.269531 -0.046875 3.46875 -0.484375 C 2.664062 -0.929688 2.035156 -1.59375 1.578125 -2.46875 C 1.128906 -3.34375 0.90625 -4.425781 0.90625 -5.71875 C 0.90625 -7 1.128906 -8.078125 1.578125 -8.953125 C 2.035156 -9.835938 2.664062 -10.5 3.46875 -10.9375 C 4.269531 -11.375 5.195312 -11.59375 6.25 -11.59375 C 7.34375 -11.59375 8.273438 -11.375 9.046875 -10.9375 C 9.816406 -10.507812 10.363281 -9.859375 10.6875 -8.984375 L 9.046875 -7.96875 L 8.84375 -7.984375 C 8.601562 -8.578125 8.269531 -9 7.84375 -9.25 C 7.425781 -9.507812 6.894531 -9.640625 6.25 -9.640625 C 5.300781 -9.640625 4.5625 -9.328125 4.03125 -8.703125 C 3.5 -8.078125 3.234375 -7.082031 3.234375 -5.71875 C 3.234375 -4.351562 3.5 -3.359375 4.03125 -2.734375 C 4.5625 -2.109375 5.300781 -1.796875 6.25 -1.796875 C 7.726562 -1.796875 8.632812 -2.515625 8.96875 -3.953125 L 9.171875 -3.953125 L 10.828125 -3.09375 C 10.515625 -2.007812 9.976562 -1.191406 9.21875 -0.640625 C 8.46875 -0.0976562 7.476562 0.171875 6.25 0.171875 Z M 6.25 0.171875 "/></g></g></g><g fill="#ffffff" fill-opacity="1"><g transform="translate(190.962201, 119.774992)"><g><path d="M 3.75 -5.015625 L 3.75 -1.890625 L 9.203125 -1.890625 L 9.203125 0 L 1.484375 0 L 1.484375 -11.421875 L 9.078125 -11.421875 L 9.078125 -9.53125 L 3.75 -9.53125 L 3.75 -6.859375 L 8.40625 -6.859375 L 8.40625 -5.015625 Z M 3.75 -5.015625 "/></g></g></g><g fill="#ffffff" fill-opacity="1"><g transform="translate(200.780121, 119.774992)"><g/></g></g><g fill="#ffffff" fill-opacity="1"><g transform="translate(204.552643, 119.774992)"><g><path d="M 0.5625 -0.90625 C 0.5625 -1.539062 0.628906 -2.070312 0.765625 -2.5 C 0.898438 -2.9375 1.125 -3.332031 1.4375 -3.6875 C 1.75 -4.039062 2.191406 -4.425781 2.765625 -4.84375 L 4.296875 -5.9375 C 4.710938 -6.238281 5.035156 -6.5 5.265625 -6.71875 C 5.492188 -6.9375 5.664062 -7.164062 5.78125 -7.40625 C 5.90625 -7.644531 5.96875 -7.914062 5.96875 -8.21875 C 5.96875 -8.6875 5.828125 -9.046875 5.546875 -9.296875 C 5.265625 -9.546875 4.84375 -9.671875 4.28125 -9.671875 C 3.738281 -9.671875 3.253906 -9.539062 2.828125 -9.28125 C 2.410156 -9.03125 2.0625 -8.679688 1.78125 -8.234375 L 1.640625 -8.1875 L 0.390625 -9.578125 C 0.796875 -10.179688 1.328125 -10.664062 1.984375 -11.03125 C 2.640625 -11.40625 3.429688 -11.59375 4.359375 -11.59375 C 5.210938 -11.59375 5.925781 -11.453125 6.5 -11.171875 C 7.082031 -10.890625 7.507812 -10.503906 7.78125 -10.015625 C 8.0625 -9.523438 8.203125 -8.96875 8.203125 -8.34375 C 8.203125 -7.800781 8.085938 -7.304688 7.859375 -6.859375 C 7.640625 -6.410156 7.328125 -5.992188 6.921875 -5.609375 C 6.523438 -5.234375 6.015625 -4.828125 5.390625 -4.390625 L 4.03125 -3.4375 C 3.625 -3.144531 3.335938 -2.882812 3.171875 -2.65625 C 3.015625 -2.4375 2.9375 -2.179688 2.9375 -1.890625 L 8.09375 -1.890625 L 8.09375 0 L 0.5625 0 Z M 0.5625 -0.90625 "/></g></g></g><g fill="#ffffff" fill-opacity="1"><g transform="translate(213.464534, 119.774992)"><g><path d="M 5.578125 0.171875 C 4.648438 0.171875 3.835938 -0.0351562 3.140625 -0.453125 C 2.453125 -0.867188 1.914062 -1.515625 1.53125 -2.390625 C 1.15625 -3.265625 0.96875 -4.375 0.96875 -5.71875 C 0.96875 -7.050781 1.15625 -8.15625 1.53125 -9.03125 C 1.914062 -9.90625 2.453125 -10.550781 3.140625 -10.96875 C 3.835938 -11.382812 4.648438 -11.59375 5.578125 -11.59375 C 6.515625 -11.59375 7.328125 -11.382812 8.015625 -10.96875 C 8.710938 -10.550781 9.25 -9.90625 9.625 -9.03125 C 10.007812 -8.15625 10.203125 -7.050781 10.203125 -5.71875 C 10.203125 -4.375 10.007812 -3.265625 9.625 -2.390625 C 9.25 -1.515625 8.710938 -0.867188 8.015625 -0.453125 C 7.328125 -0.0351562 6.515625 0.171875 5.578125 0.171875 Z M 5.578125 -1.75 C 6.085938 -1.75 6.515625 -1.875 6.859375 -2.125 C 7.203125 -2.375 7.46875 -2.789062 7.65625 -3.375 C 7.84375 -3.957031 7.9375 -4.738281 7.9375 -5.71875 C 7.9375 -6.695312 7.84375 -7.476562 7.65625 -8.0625 C 7.46875 -8.644531 7.203125 -9.054688 6.859375 -9.296875 C 6.515625 -9.546875 6.085938 -9.671875 5.578125 -9.671875 C 5.066406 -9.671875 4.640625 -9.546875 4.296875 -9.296875 C 3.953125 -9.054688 3.6875 -8.644531 3.5 -8.0625 C 3.320312 -7.476562 3.234375 -6.695312 3.234375 -5.71875 C 3.234375 -4.738281 3.320312 -3.957031 3.5 -3.375 C 3.6875 -2.789062 3.953125 -2.375 4.296875 -2.125 C 4.640625 -1.875 5.066406 -1.75 5.578125 -1.75 Z M 5.578125 -1.75 "/></g></g></g><g fill="#ffffff" fill-opacity="1"><g transform="translate(224.461836, 119.774992)"><g><path d="M 0.5625 -0.90625 C 0.5625 -1.539062 0.628906 -2.070312 0.765625 -2.5 C 0.898438 -2.9375 1.125 -3.332031 1.4375 -3.6875 C 1.75 -4.039062 2.191406 -4.425781 2.765625 -4.84375 L 4.296875 -5.9375 C 4.710938 -6.238281 5.035156 -6.5 5.265625 -6.71875 C 5.492188 -6.9375 5.664062 -7.164062 5.78125 -7.40625 C 5.90625 -7.644531 5.96875 -7.914062 5.96875 -8.21875 C 5.96875 -8.6875 5.828125 -9.046875 5.546875 -9.296875 C 5.265625 -9.546875 4.84375 -9.671875 4.28125 -9.671875 C 3.738281 -9.671875 3.253906 -9.539062 2.828125 -9.28125 C 2.410156 -9.03125 2.0625 -8.679688 1.78125 -8.234375 L 1.640625 -8.1875 L 0.390625 -9.578125 C 0.796875 -10.179688 1.328125 -10.664062 1.984375 -11.03125 C 2.640625 -11.40625 3.429688 -11.59375 4.359375 -11.59375 C 5.210938 -11.59375 5.925781 -11.453125 6.5 -11.171875 C 7.082031 -10.890625 7.507812 -10.503906 7.78125 -10.015625 C 8.0625 -9.523438 8.203125 -8.96875 8.203125 -8.34375 C 8.203125 -7.800781 8.085938 -7.304688 7.859375 -6.859375 C 7.640625 -6.410156 7.328125 -5.992188 6.921875 -5.609375 C 6.523438 -5.234375 6.015625 -4.828125 5.390625 -4.390625 L 4.03125 -3.4375 C 3.625 -3.144531 3.335938 -2.882812 3.171875 -2.65625 C 3.015625 -2.4375 2.9375 -2.179688 2.9375 -1.890625 L 8.09375 -1.890625 L 8.09375 0 L 0.5625 0 Z M 0.5625 -0.90625 "/></g></g></g><g fill="#ffffff" fill-opacity="1"><g transform="translate(233.373728, 119.774992)"><g><path d="M 4.765625 0.171875 C 3.617188 0.171875 2.710938 -0.0664062 2.046875 -0.546875 C 1.378906 -1.035156 0.941406 -1.707031 0.734375 -2.5625 L 2.453125 -3.328125 L 2.625 -3.296875 C 2.789062 -2.785156 3.039062 -2.398438 3.375 -2.140625 C 3.707031 -1.890625 4.160156 -1.765625 4.734375 -1.765625 C 5.328125 -1.765625 5.785156 -1.929688 6.109375 -2.265625 C 6.429688 -2.609375 6.59375 -3.117188 6.59375 -3.796875 C 6.59375 -4.460938 6.429688 -4.96875 6.109375 -5.3125 C 5.796875 -5.65625 5.363281 -5.828125 4.8125 -5.828125 C 4.382812 -5.828125 4.023438 -5.734375 3.734375 -5.546875 C 3.453125 -5.367188 3.21875 -5.097656 3.03125 -4.734375 L 1.15625 -4.875 L 1.390625 -11.421875 L 8.1875 -11.421875 L 8.1875 -9.53125 L 3.296875 -9.53125 L 3.1875 -6.609375 L 3.34375 -6.578125 C 3.613281 -6.929688 3.929688 -7.195312 4.296875 -7.375 C 4.671875 -7.550781 5.117188 -7.640625 5.640625 -7.640625 C 6.285156 -7.640625 6.851562 -7.492188 7.34375 -7.203125 C 7.832031 -6.921875 8.207031 -6.492188 8.46875 -5.921875 C 8.738281 -5.347656 8.875 -4.648438 8.875 -3.828125 C 8.875 -2.992188 8.710938 -2.273438 8.390625 -1.671875 C 8.066406 -1.078125 7.597656 -0.617188 6.984375 -0.296875 C 6.367188 0.015625 5.628906 0.171875 4.765625 0.171875 Z M 4.765625 0.171875 "/></g></g></g></svg>